<?xml version="1.0" standalone="no"?>
<!DOCTYPE svg PUBLIC "-//W3C//DTD SVG 20010904//EN"
 "http://www.w3.org/TR/2001/REC-SVG-20010904/DTD/svg10.dtd">
<svg version="1.0" xmlns="http://www.w3.org/2000/svg"
 width="654.000000pt" height="654.000000pt" viewBox="0 0 654.000000 654.000000"
 preserveAspectRatio="xMidYMid meet">
<metadata>
Created by potrace 1.14, written by Peter Selinger 2001-2017
</metadata>
<g transform="translate(0.000000,654.000000) scale(0.100000,-0.100000)"
fill="#000000" stroke="none">
<path d="M2288 5985 c-2 -2 -24 -6 -49 -9 -25 -3 -77 -16 -115 -29 l-69 -22
-3 -42 c-2 -24 -6 -43 -10 -43 -4 0 -21 9 -39 20 l-32 19 -50 -39 c-53 -42
-102 -109 -151 -207 -43 -87 -44 -106 -17 -205 l25 -86 -40 14 c-22 8 -44 14
-48 14 -7 0 -16 -42 -26 -123 -2 -15 -6 -38 -8 -52 -3 -13 4 -48 15 -77 23
-64 24 -60 -3 -56 l-23 3 -1 -200 c-1 -142 1 -193 8 -175 6 14 16 41 23 60 7
19 27 71 44 115 28 74 32 114 16 161 -2 7 13 19 34 28 31 15 44 31 79 102 25
49 42 98 42 118 0 36 17 61 50 71 10 3 29 23 42 43 12 20 46 65 75 99 42 50
53 70 53 98 0 26 4 35 18 36 9 1 26 2 38 3 11 0 36 15 55 31 19 17 50 41 69
55 50 38 58 47 65 81 7 29 8 30 25 14 18 -16 23 -15 84 16 37 19 69 42 72 53
5 14 8 15 14 6 6 -10 19 -9 62 8 29 11 71 26 93 33 63 20 61 25 -17 39 -40 7
-84 14 -97 17 -12 2 -29 -1 -37 -8 -11 -9 -15 -8 -19 4 -5 11 -26 15 -90 16
l-84 2 -3 -38 -4 -38 -16 34 c-13 29 -38 47 -50 36z m201 -89 c-2 -2 -49 -24
-104 -48 -83 -36 -127 -65 -250 -164 -83 -65 -155 -126 -162 -134 -6 -8 -56
-104 -109 -212 -54 -108 -99 -196 -101 -195 -7 8 58 160 123 286 l76 146 159
130 c155 126 162 131 251 158 50 15 94 29 96 32 3 3 10 5 15 5 6 0 8 -2 6 -4z"/>
<path d="M2217 5178 c-20 -4 -56 -17 -79 -29 -78 -40 -98 -60 -114 -116 -17
-58 -26 -65 -41 -31 -9 21 -12 19 -51 -31 -23 -28 -44 -67 -48 -85 -4 -22 -11
-33 -21 -32 -14 1 -113 -154 -113 -176 0 -18 127 99 138 126 9 22 16 27 33 23
26 -7 112 47 128 80 6 14 17 21 30 18 27 -5 158 47 175 70 9 13 17 15 30 8 22
-12 125 4 147 23 10 9 19 10 25 4 6 -6 37 -13 70 -15 32 -2 86 -11 119 -19
l60 -14 -45 39 c-25 21 -51 37 -57 34 -7 -2 -13 1 -13 8 0 7 -18 22 -41 35
-32 19 -43 21 -55 11 -11 -9 -14 -8 -14 8 0 21 -39 40 -120 61 -31 8 -37 6
-51 -16 -16 -23 -17 -24 -23 -4 -9 26 -23 30 -69 20z m279 -127 c17 -11 16
-11 -6 -5 -28 8 -122 7 -160 -1 -14 -3 -54 -10 -90 -16 -62 -11 -94 -28 -250
-126 -19 -12 -17 -9 5 10 49 42 180 118 213 123 16 3 61 11 98 18 78 16 163
14 190 -3z"/>
<path d="M880 5087 c-63 -8 -85 -20 -73 -42 4 -5 -3 -2 -14 8 -20 17 -25 17
-72 3 -28 -8 -57 -18 -64 -23 -6 -4 -16 -8 -22 -9 -29 -5 -93 -26 -115 -39
-23 -13 -18 -14 55 -10 44 2 82 4 85 5 3 1 9 1 15 0 48 -9 124 -10 130 0 5 8
12 7 24 -4 21 -19 110 -39 171 -39 26 0 49 -5 55 -13 14 -18 154 -74 186 -74
15 0 29 -6 32 -14 9 -24 115 -86 145 -86 20 0 31 -7 38 -24 10 -26 134 -133
134 -116 0 6 -18 46 -40 90 -30 60 -45 80 -60 80 -16 0 -19 5 -16 25 3 16 -5
37 -24 64 -37 51 -46 55 -72 37 -32 -23 -34 -21 -37 32 -1 35 -8 51 -24 64
-37 28 -123 67 -176 80 -46 10 -53 9 -72 -8 -20 -18 -21 -18 -35 1 -17 23 -51
25 -154 12z m50 -81 c14 -3 36 -7 50 -10 14 -2 45 -9 70 -15 25 -5 60 -13 79
-16 41 -7 62 -18 183 -98 32 -21 58 -40 58 -43 0 -2 -25 11 -55 31 -31 19 -57
35 -60 35 -3 0 -26 13 -52 29 -27 16 -75 34 -108 40 -33 7 -78 16 -100 21 -65
15 -107 21 -162 23 -28 1 -49 5 -47 9 5 7 98 3 144 -6z"/>
<path d="M2668 4912 c-29 -3 -54 -18 -122 -78 -47 -41 -88 -74 -91 -74 -3 0
-5 27 -5 60 0 33 -2 60 -5 60 -3 0 -56 -16 -118 -36 -96 -31 -119 -42 -157
-80 -25 -24 -49 -44 -53 -44 -4 0 -7 11 -7 25 0 25 -5 23 -187 -70 -104 -53
-195 -104 -203 -112 -8 -9 -10 -13 -3 -9 6 3 42 9 80 12 37 3 84 7 103 9 19 2
58 4 86 4 39 1 61 8 98 32 l47 32 32 -31 c30 -28 38 -30 135 -35 76 -4 114 -2
144 9 53 18 50 19 85 -14 21 -21 48 -32 94 -41 35 -7 92 -22 126 -33 59 -20
64 -20 104 -4 23 9 43 16 44 14 2 -2 10 -20 18 -40 11 -26 28 -43 59 -59 24
-12 68 -36 98 -54 46 -28 62 -32 98 -28 45 5 48 3 31 -29 -9 -18 -8 -24 6 -34
10 -8 30 -24 44 -37 51 -45 89 -69 100 -63 6 4 11 2 11 -3 0 -6 -5 -11 -11
-11 -6 0 7 -20 29 -44 22 -24 61 -72 87 -107 l46 -62 -6 39 c-6 49 -14 90 -24
134 -5 19 -12 47 -15 62 -4 19 -11 26 -21 22 -17 -7 -19 4 -6 25 8 13 2 43
-19 96 -36 91 -44 105 -58 100 -7 -3 -25 -8 -39 -11 -23 -6 -24 -5 -14 15 7
11 16 21 21 21 5 0 12 9 15 20 10 32 -96 204 -163 263 -19 17 -21 17 -58 1
-22 -10 -42 -20 -46 -22 -3 -2 -4 12 -1 30 13 76 12 79 -51 114 -92 51 -231
76 -358 66z m-23 -237 c144 -7 133 -3 356 -131 47 -27 107 -60 133 -74 47 -24
75 -51 126 -120 14 -18 37 -49 53 -68 47 -61 30 -48 -60 43 -72 71 -178 155
-197 155 -3 0 -44 23 -93 51 -170 99 -195 110 -236 114 -47 4 -297 16 -400 20
-82 2 -96 11 -25 14 29 1 54 3 55 5 4 4 141 0 288 -9z"/>
<path d="M4405 4818 c-22 -5 -51 -10 -65 -12 -14 -2 -45 -9 -68 -17 l-44 -13
59 -21 c38 -14 60 -17 65 -10 5 7 8 6 8 -2 0 -6 16 -21 36 -32 28 -17 39 -19
50 -10 11 9 14 8 14 -5 0 -24 91 -106 118 -106 12 0 22 -3 23 -7 3 -29 12 -47
49 -102 23 -34 51 -66 61 -72 11 -6 19 -20 19 -36 0 -43 50 -143 72 -143 16 0
18 -5 14 -34 -4 -22 3 -58 19 -105 14 -39 25 -79 26 -88 0 -17 1 -17 8 0 12
31 4 229 -9 237 -9 6 -10 16 -3 36 5 16 9 34 8 39 -1 6 -5 38 -9 72 l-8 62
-24 -16 c-28 -18 -29 -14 -12 67 11 54 10 60 -19 122 -17 36 -47 84 -68 107
-35 38 -38 40 -58 26 -29 -20 -35 -19 -30 8 6 28 -19 42 -95 55 -51 9 -53 8
-67 -17 -13 -24 -14 -25 -15 -4 0 29 -7 31 -55 21z m70 -84 c17 -4 32 -10 35
-13 3 -4 34 -31 70 -61 35 -30 74 -64 87 -75 23 -21 108 -193 118 -241 4 -16
-18 24 -48 89 -30 65 -62 125 -73 135 -10 9 -44 37 -74 62 -30 25 -58 48 -61
53 -3 4 -32 21 -65 38 -32 16 -50 28 -39 25 11 -3 34 -8 50 -12z"/>
<path d="M953 4623 c-8 -3 -9 -13 -3 -31 5 -15 11 -40 15 -55 l6 -29 -28 19
c-15 11 -55 34 -88 52 l-61 32 -64 -20 c-36 -11 -85 -33 -110 -49 -44 -28
-140 -119 -140 -133 0 -3 7 -26 15 -49 8 -24 14 -44 12 -46 -1 -2 -19 1 -39 5
-36 8 -37 8 -51 -28 -19 -47 -44 -137 -52 -181 -3 -19 -8 -44 -12 -54 -4 -14
4 -27 28 -47 l33 -26 -28 0 c-15 0 -31 -4 -36 -9 -15 -15 -14 -172 0 -189 10
-12 10 -15 0 -15 -10 0 -11 -26 -6 -117 3 -64 8 -118 10 -120 2 -2 14 26 27
64 12 37 30 87 40 111 17 39 17 42 1 43 -13 0 -12 2 4 9 12 4 38 38 58 75 30
54 34 70 25 86 -13 25 -9 29 25 33 17 2 38 19 63 52 21 27 49 62 62 77 14 16
26 36 26 45 5 66 3 64 40 58 30 -5 44 0 98 40 34 25 74 52 89 60 16 8 35 30
43 50 13 32 17 34 52 30 27 -3 60 4 117 27 65 26 81 38 94 65 18 37 19 37 61
16 30 -15 38 -15 119 5 48 11 104 23 125 27 22 4 35 10 30 15 -15 15 -141 48
-263 69 -72 13 -69 13 -62 -12 5 -22 5 -22 -21 -5 -15 9 -38 24 -51 32 -23 15
-175 28 -203 18z m196 -127 c-2 -2 -89 -38 -193 -80 -140 -56 -196 -83 -215
-105 -137 -156 -227 -278 -272 -367 -27 -54 -47 -90 -43 -79 3 11 17 55 31 98
13 43 32 87 41 98 9 12 27 33 40 47 12 15 62 75 110 134 l87 107 107 45 c59
25 137 55 175 67 37 12 79 25 93 29 28 9 46 12 39 6z"/>
<path d="M1656 4461 c-22 -24 -14 -54 19 -69 33 -15 56 -53 60 -99 3 -21 27
-88 56 -148 108 -230 213 -536 253 -735 29 -147 37 -190 42 -234 3 -28 7 -57
10 -64 9 -28 18 -234 18 -387 -1 -171 -8 -263 -21 -275 -4 -4 -51 -22 -103
-40 -511 -176 -1025 -506 -1416 -910 -113 -117 -174 -184 -174 -192 0 -6 21
-12 85 -23 17 -3 40 -7 51 -9 23 -5 73 -13 132 -22 20 -3 44 -7 52 -9 8 -2 38
-7 65 -10 28 -4 57 -8 65 -10 18 -5 274 -42 345 -50 28 -3 61 -8 75 -10 14 -2
50 -7 80 -10 30 -4 69 -8 85 -10 44 -6 212 -24 275 -30 30 -3 75 -8 100 -10
138 -15 301 -28 510 -41 174 -10 189 -11 420 -19 362 -13 1145 -7 1294 10 17
2 87 6 156 10 69 3 145 8 170 10 55 5 152 13 245 20 99 8 241 22 305 30 19 2
60 7 90 10 76 8 144 16 325 40 42 6 185 26 215 30 14 2 45 7 70 10 25 3 52 8
60 10 8 2 33 6 55 10 190 27 385 64 385 72 0 14 -173 196 -312 328 -354 337
-819 615 -1322 791 l-108 38 6 91 c7 89 9 110 22 185 3 19 8 49 11 65 36 233
191 625 340 858 15 23 29 53 30 67 2 14 19 39 38 55 38 32 44 50 20 59 -16 6
-105 -113 -216 -289 -141 -222 -327 -633 -419 -925 -19 -58 -35 -106 -36 -108
-1 -1 -41 6 -90 17 -281 62 -498 86 -804 86 -214 0 -365 -8 -497 -26 -92 -12
-97 -13 -233 -38 -58 -11 -108 -16 -111 -13 -4 4 -14 50 -23 102 -71 402 -250
952 -433 1330 -104 215 -271 500 -292 500 -5 0 -16 -9 -25 -19z"/>
<path d="M1570 4367 c-28 -25 -25 -49 10 -72 17 -11 36 -35 42 -52 15 -41 48
-44 77 -7 32 40 27 80 -13 120 -39 39 -82 43 -116 11z"/>
<path d="M1379 4331 c-19 -20 -29 -40 -29 -60 0 -39 12 -40 27 -2 13 35 54 64
93 65 35 1 39 11 8 20 -45 12 -70 6 -99 -23z"/>
<path d="M1433 4298 c-51 -25 -63 -111 -23 -168 55 -78 175 -63 199 25 12 44
-4 89 -44 124 -38 33 -88 40 -132 19z"/>
<path d="M4509 4284 c-9 -11 -14 -12 -20 -3 -5 9 -15 9 -41 -1 -42 -17 -59
-30 -52 -41 3 -5 -2 -6 -10 -3 -8 3 -28 -7 -47 -25 -17 -17 -35 -31 -38 -31
-3 0 -12 -9 -18 -19 -13 -21 -13 -21 109 18 18 6 30 6 34 -1 3 -5 26 -8 50 -7
24 2 47 -1 51 -5 11 -11 73 -36 88 -36 7 0 27 -13 45 -30 18 -16 38 -30 46
-30 7 0 33 -21 58 -47 66 -69 60 -50 -26 92 -52 84 -52 84 -64 67 -11 -14 -13
-12 -19 20 -5 28 -16 43 -41 58 -52 32 -91 41 -105 24z m-16 -81 c3 -5 -19 -8
-48 -8 -29 0 -51 3 -48 8 2 4 24 7 48 7 24 0 46 -3 48 -7z m65 -10 c-10 -2
-26 -2 -35 0 -10 3 -2 5 17 5 19 0 27 -2 18 -5z m72 -40 c0 -7 -39 17 -46 28
-3 6 5 3 20 -6 14 -10 26 -19 26 -22z m31 -20 c13 -16 12 -17 -3 -4 -17 13
-22 21 -14 21 2 0 10 -8 17 -17z"/>
<path d="M5225 4280 c-3 -6 -17 -7 -29 -4 -50 12 -148 -54 -151 -102 -1 -23
-5 -28 -22 -26 -22 3 -53 -35 -53 -64 0 -9 -6 -22 -14 -28 -8 -6 -24 -35 -35
-65 l-20 -54 39 38 c22 22 40 45 40 52 0 7 8 13 19 13 10 0 34 15 54 34 20 19
58 44 84 56 26 13 56 30 67 39 10 9 26 16 35 17 36 1 91 17 91 25 0 5 10 9 23
8 30 0 161 12 165 16 7 6 -115 42 -140 41 -16 -1 -28 2 -28 6 0 12 -118 10
-125 -2z m143 -36 c-3 -2 -18 -6 -34 -8 -16 -2 -45 -9 -64 -15 -56 -18 -60
-11 -5 8 46 16 113 26 103 15z m-213 -60 c-16 -8 -37 -21 -46 -27 -8 -7 -2 0
15 16 17 15 37 27 46 27 8 0 2 -7 -15 -16z m-75 -47 c0 -2 -10 -12 -22 -23
l-23 -19 19 23 c18 21 26 27 26 19z"/>
<path d="M4200 4086 c-58 -13 -89 -26 -130 -58 -19 -15 -24 -27 -21 -54 3 -34
2 -35 -20 -23 -20 10 -25 8 -46 -17 -28 -33 -83 -137 -83 -155 0 -7 8 -21 17
-31 16 -18 16 -19 -9 -14 -25 4 -28 0 -43 -44 -9 -27 -17 -59 -19 -72 -1 -13
-5 -30 -8 -38 -14 -34 -34 -159 -25 -150 16 16 80 117 80 128 0 6 6 12 12 12
19 0 80 81 77 101 -2 14 2 17 18 14 31 -6 138 73 146 108 7 31 5 30 38 17 20
-7 37 -4 78 15 29 14 60 25 69 25 8 0 25 11 37 25 18 21 26 23 47 15 14 -5 37
-7 52 -5 16 3 43 7 62 9 19 3 40 14 48 26 14 20 16 20 41 4 19 -12 51 -17 124
-19 l99 -2 -43 25 c-57 32 -179 92 -189 92 -5 0 -5 -8 -2 -17 6 -16 5 -17 -12
-3 -11 8 -27 23 -35 32 -14 15 -106 48 -137 48 -9 0 -13 -14 -13 -42 -1 -36
-3 -41 -13 -28 -36 43 -85 79 -112 83 -16 3 -55 0 -85 -7z m240 -141 c-41 -7
-97 -16 -125 -19 -77 -10 -82 -13 -200 -99 -67 -49 -128 -103 -155 -138 -25
-31 -46 -56 -48 -54 -2 2 16 31 40 66 30 43 66 80 118 116 41 30 83 60 92 68
50 41 70 48 193 61 28 3 52 8 54 10 2 2 27 3 55 3 50 -1 50 -2 -24 -14z"/>
<path d="M5184 3972 c-12 -2 -30 -12 -40 -23 -18 -20 -40 -27 -29 -9 9 15 -9
12 -93 -15 -101 -33 -113 -41 -73 -49 17 -3 46 -9 64 -13 48 -10 50 -10 74 5
19 12 22 11 28 -8 8 -25 68 -53 113 -52 26 0 35 -5 42 -23 5 -13 18 -26 29
-30 12 -3 21 -10 21 -14 0 -12 64 -46 83 -43 10 2 18 -3 18 -12 1 -9 2 -20 3
-24 3 -19 77 -112 88 -110 7 2 13 -8 13 -22 1 -31 34 -100 47 -100 5 0 7 -4 4
-9 -3 -4 5 -39 18 -77 l25 -69 2 55 c1 30 3 65 4 78 1 12 -2 25 -7 28 -4 3 -5
10 -2 16 6 10 7 38 5 108 -1 11 -8 20 -16 20 -19 0 -19 9 -1 29 12 14 11 28
-8 101 -20 80 -23 85 -47 85 -25 -1 -26 1 -17 27 15 43 -17 87 -94 128 -57 30
-79 30 -118 0 -58 -44 -59 -44 -53 -5 5 34 5 34 -28 33 -19 -1 -44 -4 -55 -6z
m126 -130 c73 -28 77 -32 153 -128 43 -55 82 -116 88 -137 5 -21 12 -46 15
-55 3 -9 -7 8 -22 38 -14 30 -58 96 -96 147 l-70 92 -97 37 c-99 38 -140 61
-80 44 19 -5 68 -23 109 -38z"/>
<path d="M4816 3769 c-30 -24 -35 -69 -10 -90 13 -11 17 -10 26 5 6 10 21 27
34 39 29 25 30 43 5 57 -25 13 -24 13 -55 -11z"/>
<path d="M4948 3740 c23 -14 32 -27 33 -47 l0 -28 10 24 c13 34 -12 71 -49 71
l-27 0 33 -20z"/>
<path d="M4873 3712 c-48 -37 -47 -116 2 -128 51 -13 95 30 95 92 0 51 -53 70
-97 36z"/>
</g>
</svg>
